<svg width="46" height="45" viewBox="0 0 46 45" version="1.1" xmlns="http://www.w3.org/2000/svg" xmlns:xlink="http://www.w3.org/1999/xlink">
<title>Group</title>
<desc>Created using Figma</desc>
<g id="Canvas" transform="translate(-1389 22)">
<g id="Group">
<g id="Subtract">
<use xlink:href="#path0_fill" transform="translate(1393.39 -19.0504)" fill="#FF6B6B"/>
</g>
<g id="Vector (Stroke)">
<use xlink:href="#path1_fill" transform="translate(1389.21 -22)" fill="#FF6B6B"/>
</g>
<g id="Vector 2 (Stroke)">
<use xlink:href="#path2_fill" transform="translate(1389 -15.7676)" fill="#FF6B6B"/>
</g>
</g>
</g>
<defs>
<path id="path0_fill" fill-rule="evenodd" d="M 0.69407 2.28036C 1.51554 1.20573 4.02104 -0.701752 7.4712 0.265418C 10.9214 1.23259 19.1772 4.16097 22.8738 5.50427C 25.6805 6.64607 31.7457 9.45355 33.5529 11.5491C 35.812 14.1685 38.8925 17.7954 37.2495 24.6462C 35.9352 30.1269 32.0469 32.1687 30.267 32.5045C 29.0348 32.9075 25.8311 33.5925 22.8738 33.109C 19.9165 32.6254 17.8081 31.1612 17.1235 30.4895C 16.1651 29.2134 14.0841 25.8955 13.4269 22.8328C 12.6054 19.0044 11.5786 17.1909 9.93562 14.773C 8.62128 12.8387 5.28062 10.2058 3.77459 9.13116C 1.85784 7.9222 -1.44173 4.85948 0.69407 2.28036ZM 25.9543 17.9969C 25.4066 18.1984 24.4346 19.085 24.9274 21.0193C 25.4203 22.9537 26.7757 23.9746 27.3919 24.2432C 28.008 24.579 29.5277 24.9283 30.6777 23.6387C 31.7978 22.3828 31.5153 21.2797 31.3101 20.4785L 31.2938 20.4148C 31.0885 19.6089 30.7188 18.6417 29.2402 17.9969C 27.7615 17.3521 26.4335 17.7282 25.9543 17.9969Z"/>
<path id="path1_fill" fill-rule="evenodd" d="M 10.1645 1.23407C 8.06491 1.1007 5.83847 1.4746 4.02526 2.88298C 2.1291 4.35579 1.4357 5.64438 1.27315 6.62649C 1.11125 7.60462 1.45836 8.38364 1.86489 8.88222L 1.38753 9.25691L 1.86489 8.88222C 3.47189 10.8569 5.06978 12.2256 8.76072 15.2433C 11.7783 17.7105 13.5259 20.9133 14.0591 22.2982C 14.7683 23.4932 16.2351 26.4208 16.5756 28.9264C 16.8829 31.1877 18.5299 33.8394 19.3329 34.8899L 19.3624 34.9284L 19.3853 34.971C 19.9571 36.037 22.4734 38.5693 27.7081 38.8806C 32.9592 39.1928 37.4646 37.0498 39.0207 35.9683L 39.0509 35.9473L 39.0834 35.93C 40.5128 35.1704 43.8714 31.8514 44.5135 24.9217C 44.8459 21.5163 43.6093 18.4866 41.8831 15.9523C 40.1778 13.4341 38.0563 11.5648 36.5841 10.5778C 35.2794 9.83757 32.2959 8.23582 30.5408 7.61149C 29.21 7.13602 27.4312 6.65804 25.6409 6.17695C 24.4385 5.85384 23.2308 5.52932 22.1501 5.20322C 19.9837 4.54833 16.6759 3.16416 15.3013 2.55729L 15.2899 2.55223L 15.2786 2.54671C 14.1529 1.9929 12.2782 1.36309 10.1645 1.23407ZM 15.8179 1.45962C 14.6142 0.872834 12.5111 0.176854 10.2441 0.0276305C 7.95575 -0.117732 5.39028 0.280762 3.26043 1.93509C 1.21353 3.52499 0.284519 5.05732 0.056873 6.4327C -0.171431 7.81204 0.323467 8.92707 0.902704 9.63746C 2.58159 11.6927 4.26959 13.1449 7.97188 16.172C 10.831 18.5097 12.473 21.5708 12.9224 22.7674L 12.9415 22.8182L 12.9695 22.8649C 13.6406 23.9844 15.042 26.7888 15.3542 29.0862C 15.7002 31.6321 17.4673 34.453 18.3188 35.578C 19.1496 37.0735 22.0796 39.7571 27.6336 40.0873C 33.1943 40.418 37.9492 38.1824 39.7033 36.9753C 41.5685 35.9624 45.0724 32.2437 45.7407 25.0311C 46.0655 21.3439 44.7008 17.9257 42.9084 15.2817C 41.1022 12.6322 38.7987 10.5976 37.2595 9.56637L 37.2407 9.55383L 37.2211 9.54268C 35.914 8.80024 32.8125 7.1374 30.9619 6.47531C 29.5818 5.98359 27.7626 5.4944 25.955 5.00836C 24.7588 4.68671 23.5678 4.36643 22.5125 4.04772C 20.4129 3.41474 17.1878 2.0641 15.8179 1.45962Z"/>
<path id="path2_fill" fill-rule="evenodd" d="M 0.160286 1.15168C 0.224777 0.673954 0.306573 0.252024 0.39998 0L 1.558 0.413155C 1.51449 0.530538 1.44569 0.837344 1.38182 1.31042C 1.31925 1.77287 1.26871 2.33091 1.24554 2.94429C 1.19836 4.18243 1.27026 5.5277 1.56785 6.47662C 2.17326 8.4071 3.45676 9.76138 4.00383 10.1892C 4.83873 10.7033 6.15086 11.5947 7.37053 12.5928C 8.58563 13.588 9.80571 14.7649 10.3609 15.8543C 11.3821 17.8582 12.1866 21.0802 12.4647 22.4396C 12.8391 23.9073 13.5156 26.2046 14.3455 28.3858C 15.1911 30.6094 16.145 32.5676 17.0226 33.4287C 18.9343 35.3044 20.7106 36.1313 21.282 36.2995L 21.322 36.3113L 21.36 36.3282C 22.758 36.9517 27.0049 38.0767 32.3079 37.2883C 37.4475 36.5243 40.4425 32.4939 41.2818 30.5933L 41.2971 30.5587L 41.3167 30.5262C 41.7263 29.8461 42.4488 28.1452 43.1167 26.198C 43.7804 24.2634 44.3632 22.1786 44.5203 20.6957L 45.7458 20.8223C 45.5742 22.4021 44.9591 24.6158 44.2845 26.5835C 43.6231 28.512 42.8783 30.2948 42.3972 31.1083C 41.437 33.2505 38.166 37.6402 32.4925 38.4836C 26.9937 39.3011 22.5315 38.1659 20.8869 37.4451C 20.065 37.1907 18.1485 36.2431 16.1513 34.2835C 15.0573 33.2102 14.026 31.0042 13.191 28.8084C 12.343 26.577 11.6451 24.2072 11.2658 22.719L 11.2622 22.7051L 11.2593 22.691C 10.9871 21.3555 10.2055 18.2527 9.25873 16.3949C 8.82811 15.55 7.78914 14.5105 6.5809 13.5209C 5.39122 12.5458 4.13184 11.6932 3.32223 11.1969L 3.29544 11.1804L 3.27051 11.1614C 2.57144 10.628 1.09035 9.06495 0.390131 6.83216C 0.0305421 5.68554 -0.0344713 4.17631 0.0141917 2.89913C 0.0389415 2.25486 0.0945054 1.64003 0.160286 1.15168Z"/>
</defs>
</svg>
